<?xml version="1.0" encoding="UTF-8"?>
<svg id="Layer_2" data-name="Layer 2" xmlns="http://www.w3.org/2000/svg" viewBox="0 0 3134.75 1964.12">
  <path d="M2327.66,1139.95h-69.69s187.5,240.62,195.35,249.9v-88.82s-125.66-161.08-125.66-161.08Zm134.94,0c-16.17,0-29.27,13.11-29.27,29.27s13.11,29.27,29.27,29.27,29.27-13.11,29.27-29.27-13.11-29.27-29.27-29.27Zm-175.64,191.35c-16.17,0-29.27,13.11-29.27,29.27s13.11,29.27,29.27,29.27,29.27-13.11,29.27-29.27-13.11-29.27-29.27-29.27Z"/>
  <path d="M1397.63,15.27c10.82,17.51,17.08,38.13,17.08,60.22,0,63.36-51.36,114.72-114.72,114.72s-114.72-51.36-114.72-114.72c0-22.65,6.59-43.75,17.92-61.53-7.01-4.6-13.99-9.24-20.9-13.95-14,21.78-22.15,47.67-22.15,75.49,0,77.24,62.61,139.85,139.85,139.85s139.85-62.61,139.85-139.85c0-27.18-7.78-52.53-21.19-73.99-7.08,4.42-14.07,9.05-21.02,13.77Z"/>
  <path d="M2552.11,1303.42c-3.19-42.23,9.36-96.82,45.63-96.82h0c-49.22,0-103.79,32.11-99.89,97.54,4.11,60.43,53.69,85.71,99.89,85.71-27.81,0-42.94-50.45-45.63-86.42Zm55.19-96.84s.09,0,.13,0c0,0-.02,0-.03,0h-.11Zm57.98,24.79c-12.83-14.48-31.68-22.56-50-24.37-2.63-.29-5.25-.41-7.85-.42,10.74,.04,30.59,24,27.9,71.62h-55.3v1.73h100.98c.18-2.02,.23-4.08,.23-6.23-.32-17.59-6.5-31.69-15.96-42.34Zm-33.64,96.44c-16.17,0-29.27,13.11-29.27,29.27s13.11,29.27,29.27,29.27,29.27-13.11,29.27-29.27-13.11-29.27-29.27-29.27Z"/>
  <g>
    <path d="M2721.52,1391.9v-177.25h55.33v121.91c0,30.56-24.77,55.33-55.33,55.33h0Z"/>
    <circle cx="2749.19" cy="1167.17" r="29.27"/>
  </g>
  <path d="M2820.98,1214.65h-15.67l81.03,179.75h.27l25.47-71.79-31.23-69.28c-10.61-23.54-34.04-38.68-59.87-38.68Zm117.22,0c-16.17,0-29.27,13.11-29.27,29.27s13.11,29.27,29.27,29.27,29.27-13.11,29.27-29.27-13.11-29.27-29.27-29.27Z"/>
</svg>