<?xml version="1.0" encoding="UTF-8"?>
<svg id="Layer_2" data-name="Layer 2" xmlns="http://www.w3.org/2000/svg" viewBox="0 0 1165.73 436.19">
  <defs>
    <style>
      .cls-1 {
        stroke-width: 13.11px;
      }

      .cls-1, .cls-2, .cls-3 {
        fill: none;
        stroke: #000;
        stroke-miterlimit: 10;
      }

      .cls-2 {
        stroke-width: 2.46px;
      }

      .cls-3 {
        opacity: .57;
        stroke-width: 3px;
      }
    </style>
  </defs>
  <g id="Layer_1-2" data-name="Layer 1">
    <path d="M219.7,251.39c-1.1-3.59-2.57-7.04-4.24-10.36-1.66-3.28-3.57-6.58-5.82-9.68-4.46-6.2-10.11-11.57-16.48-15.85-12.72-8.58-28.45-12.89-44.17-11.28-.24,.03-.47,.07-.71,.1l-1.72-9.12-3.79-20.05c-.73-3.75-1.52-7.49-2.31-11.22,1.38-1.72,2.77-3.42,4.13-5.18l12.27-16.24c4.14-5.54,8.26-11.33,12.13-17.4,3.85-6.09,7.4-12.5,10.34-19.25,2.92-6.77,5.08-13.82,6.43-21.08,1.36-7.31,1.2-14.98,1.11-22.39-.07-6.26-.45-12.53-1.5-18.71-1.5-8.86-4.23-17.52-7.87-25.73-3.28-7.39-7.21-14.1-15.35-16.8-2.63-.87-5.42-1.27-8.15-1.12-2.75,.14-5.55,.79-8.02,1.9-4.97,2.25-8.65,5.66-11.43,9.07-2.75,3.47-4.81,7.02-6.43,10.6-1.65,3.57-2.91,7.14-3.93,10.72-3.95,14.31-4.89,28.46-4.57,42.56,.11,3.53,.26,7.05,.57,10.58,.31,3.58,.85,6.98,1.28,10.42,.97,6.87,2.12,13.66,3.44,20.4,1.22,6.5,2.56,12.94,3.98,19.36l-1.16,1.06-3.72,3.51c-9.48,8.98-19.82,17.77-29.23,28.25-9.37,10.49-18.2,22.41-25.12,35.98-6.86,13.56-11.13,29.18-10.96,44.55-.02,1.91,.13,3.82,.19,5.72,.16,1.9,.33,3.77,.54,5.66,.46,3.86,1.25,7.66,2.28,11.37,2.04,7.42,5.29,14.38,9.29,20.68,8.08,12.62,19.41,22.39,31.93,29.11,3.14,1.69,6.37,3.16,9.67,4.43,3.28,1.3,6.63,2.42,10.04,3.29,6.79,1.84,13.86,2.67,20.83,2.66,7.64-.07,15.21-1.14,22.56-3.08l1.38,7.47c1.16,6.65,2.27,13.32,3.26,20.02l2.87,20.13c1.02,6.83,2.42,13.39,3,19.91,.59,6.49,.17,13.05-2.58,18.86-1.36,2.88-3.3,5.5-5.64,7.75-2.38,2.21-5.13,4.03-8.08,5.48-5.94,2.84-12.65,4.03-19.18,3.78-6.54-.3-13.08-1.77-18.43-4.88-4.4-2.46-7.79-6.09-9.63-10.21,3.37,2.46,7.51,3.93,12.01,3.93,7.89,0,14.72-4.48,18.12-11.03,.28-.48,.56-.96,.81-1.47,1.21-2.46,2.03-5.25,2.17-8.37,.08-1.56-.06-3.2-.38-4.81-.31-1.29-.7-2.51-1.21-3.68-1.02-2.32-2.42-4.29-3.91-5.87-3.03-3.18-6.35-4.82-9.6-5.86-1.64-.51-3.29-.82-5-.97-1.66-.08-3.2-.11-4.74,.13-3.07,.34-5.93,1.26-8.38,2.56-4.97,2.57-8.56,6.34-11.04,10.57-1.24,2.13-2.17,4.42-2.78,6.79-.31,1.19-.5,2.41-.63,3.64-.1,1.2-.17,2.35-.09,3.51,.18,4.63,1.66,8.85,3.65,12.48,2.06,3.62,4.74,6.69,7.8,9.19,3.13,2.49,6.54,4.27,10.04,5.56,7.06,2.5,14.28,3.06,21.28,2.55,7.02-.53,13.9-2.2,20.23-5.23,3.17-1.48,6.18-3.38,8.85-5.72,2.71-2.29,5.05-5.08,6.83-8.22,3.63-6.29,4.77-13.73,4.61-20.73-.11-7.06-1.38-13.86-2.22-20.47-.92-6.73-1.86-13.47-2.87-20.2-1.02-6.73-2.07-13.47-3.32-20.18l-1.57-8.09c4.1-1.36,8.13-2.96,12.02-4.87,12.42-6.14,23.9-15.15,31.37-27.7,3.71-6.24,6.25-13.4,6.99-20.89,.8-7.48-.12-15.16-2.37-22.33ZM131.3,75.57c1-6.5,2.36-12.95,4.05-19.23,1.7-6.27,3.64-12.41,6.03-18.11,2.36-5.65,5.13-11.06,8.3-14.65,1.55-1.8,3.11-2.98,4.35-3.52,.63-.28,1.16-.49,1.78-.67,.65-.18,1.29-.36,1.96-.4,1.32-.18,3.27,.1,5.54,1.31,2.25,1.2,4.56,3.21,6.61,5.58,4.09,4.83,6.69,11.19,7.63,17.69,1.05,6.51,1.44,13.15,1.12,19.7-.34,6.52-1.29,13.11-3.37,18.81-4.37,11.86-12.4,21.87-21.59,30.88-4.58,4.56-9.51,8.91-14.53,13.39l-5.4,4.86c-.98-5.3-1.85-10.6-2.52-15.92-.79-6.67-1.32-13.37-1.32-20.04-.05-6.73,.34-13.15,1.36-19.69Zm12.27,252.01c-13.19-.47-25.98-5.2-36.63-12.59-10.64-7.41-19-17.69-23.71-29.08-2.38-5.67-3.85-11.61-4.37-17.53-.26-2.96-.33-5.91-.14-8.83l.39-4.52c.23-1.49,.38-2.99,.67-4.45,1.1-5.87,2.76-11.51,5.05-16.9,2.36-5.37,5.3-10.49,8.65-15.45,3.42-4.93,7.22-9.74,11.36-14.42,4.13-4.71,8.62-9.27,13.08-14.05,6.24-6.61,12.49-13.63,18.65-21.05,2.67,12.06,5.06,24.19,7.33,36.35-6.08,1.27-12.01,3.58-17.28,6.99-6.74,4.33-12.3,10.39-16.04,17.15-1.91,3.36-3.36,6.9-4.49,10.46-1.12,3.67-1.85,7.51-1.95,11.33-.08,3.82,.29,7.61,1.25,11.21,.97,3.59,2.34,7.01,4.12,10.17,3.55,6.33,8.59,11.54,14.33,15.6,2.9,2.01,6.05,3.65,9.41,4.79,3.34,1.12,7.04,1.72,10.66,.74,.53-.14,.84-.68,.7-1.21-.14-.53-.68-.85-1.21-.71h-.02c-3,.79-6.31,.09-9.3-1.08-3.03-1.19-5.8-3.01-8.33-5.06-5.09-4.11-9.05-9.55-11.53-15.4-2.52-5.84-3.24-12.28-1.91-18.13,.67-2.93,1.76-5.7,3.27-8.28,1.53-2.68,3.25-5.19,5.23-7.39,3.92-4.46,8.66-7.78,13.75-10.1,3.97-1.81,8.18-3.01,12.53-3.71,.82,4.55,1.65,9.09,2.47,13.64l14.17,80.24,1.63,8.83c-7.11,1.88-14.48,2.76-21.79,2.44Zm65.22-36.24c-5.19,11.63-15.28,21.18-26.93,27.37-3.49,1.86-7.15,3.42-10.9,4.72l-1.59-8.17-15.29-80.02-2.51-13.34c11.12-.95,22.82,1.79,32.85,7.49,5.15,2.91,9.8,6.68,13.85,11.06,3.96,4.36,7.45,9.76,9.99,15.23,2.55,5.53,4.09,11.48,4.22,17.58,.15,6.09-1.15,12.28-3.71,18.08Z"/>
    <line class="cls-3" y1="274.1" x2="1155.76" y2="274.1"/>
    <line class="cls-3" y1="210.3" x2="1155.76" y2="210.3"/>
    <line class="cls-3" y1="146.5" x2="1155.76" y2="146.5"/>
    <line class="cls-3" y1="84.69" x2="1155.76" y2="84.69"/>
    <line class="cls-3" y1="336.9" x2="1155.76" y2="336.9"/>
    <circle cx="1088.92" cy="175.24" r="14.99"/>
    <circle cx="1088.92" cy="245.36" r="14.99" transform="translate(599.95 1248.78) rotate(-76.72)"/>
    <line class="cls-2" x1="1133.29" y1="82.69" x2="1133.29" y2="337.9"/>
    <line class="cls-1" x1="1159.17" y1="83.83" x2="1159.17" y2="337.9"/>
  </g>
  <g id="Layer_2-2" data-name="Layer 2">
    <path d="M358.64,84.85h-69.69s187.5,240.62,195.35,249.9v-88.82s-125.66-161.08-125.66-161.08Zm134.94,0c-16.17,0-29.27,13.11-29.27,29.27s13.11,29.27,29.27,29.27,29.27-13.11,29.27-29.27-13.11-29.27-29.27-29.27Zm-175.64,191.35c-16.17,0-29.27,13.11-29.27,29.27s13.11,29.27,29.27,29.27,29.27-13.11,29.27-29.27-13.11-29.27-29.27-29.27Z"/>
    <path d="M583.09,248.32c-3.19-42.23,9.36-96.82,45.63-96.82h0c-49.22,0-103.79,32.11-99.89,97.54,4.11,60.43,53.69,85.71,99.89,85.71-27.81,0-42.94-50.45-45.63-86.42Zm55.19-96.84s.09,0,.13,0c0,0-.02,0-.03,0h-.11Zm57.98,24.79c-12.83-14.48-31.68-22.56-50-24.37-2.63-.29-5.25-.41-7.85-.42,10.74,.04,30.59,24,27.9,71.62h-55.3v1.73h100.98c.18-2.02,.23-4.08,.23-6.23-.32-17.59-6.5-31.69-15.96-42.34Zm-33.64,96.44c-16.17,0-29.27,13.11-29.27,29.27s13.11,29.27,29.27,29.27,29.27-13.11,29.27-29.27-13.11-29.27-29.27-29.27Z"/>
    <g>
      <path d="M752.5,336.8V159.55h55.33v121.91c0,30.56-24.77,55.33-55.33,55.33h0Z"/>
      <circle cx="780.17" cy="112.07" r="29.27"/>
    </g>
    <path d="M851.96,159.55h-15.67l81.03,179.75h.27l25.47-71.79-31.23-69.28c-10.61-23.54-34.04-38.68-59.87-38.68Zm117.22,0c-16.17,0-29.27,13.11-29.27,29.27s13.11,29.27,29.27,29.27,29.27-13.11,29.27-29.27-13.11-29.27-29.27-29.27Z"/>
  </g>
</svg>